<?xml version="1.0" encoding="UTF-8"?>
<svg version="1.1" xmlns="http://www.w3.org/2000/svg" width="1200" height="1200">
<path d="M0 0 C396 0 792 0 1200 0 C1200 396 1200 792 1200 1200 C804 1200 408 1200 0 1200 C0 804 0 408 0 0 Z " fill="#FEFEFE" transform="translate(0,0)"/>
<path d="M0 0 C7.54780123 6.32383346 14.95800089 13.20337993 21 21 C21 21.66 21 22.32 21 23 C21.66 23 22.32 23 23 23 C23 12.11 23 1.22 23 -10 C33.89 -10 44.78 -10 56 -10 C56.00546844 -5.14069763 56.00546844 -5.14069763 56.01104736 -0.18322754 C56.04633159 29.53086466 56.10136869 59.24485438 56.17792095 88.95886764 C56.18793829 92.85408847 56.19778244 96.74930971 56.20751953 100.64453125 C56.2094609 101.41999261 56.21140228 102.19545396 56.21340248 102.99441415 C56.24441506 115.54699973 56.26140106 128.09956704 56.27319422 140.65218371 C56.28560963 153.53441583 56.31311982 166.4165521 56.35461307 179.2987237 C56.37973736 187.24634967 56.39311807 195.19381664 56.39142957 203.14148289 C56.39139627 209.23801518 56.41237472 215.3342914 56.44116783 221.43076324 C56.44968833 223.93007781 56.45140225 226.42942627 56.44580269 228.92874908 C56.43917405 232.34197358 56.45705802 235.75423124 56.48101807 239.1673584 C56.47325765 240.15570222 56.46549723 241.14404605 56.45750165 242.16233969 C56.53222026 248.17771223 57.38114338 253.05452805 61 258 C67.57667941 263.55094591 76.35009842 262.66382279 84.5 262.75 C89.285 262.8325 94.07 262.915 99 263 C99 273.56 99 284.12 99 295 C49.36975767 295.69575106 49.36975767 295.69575106 33.9375 281.6875 C30.34162499 277.66484185 28.11369272 272.92403323 26 268 C25.50673721 266.86560738 25.50673721 266.86560738 25.00350952 265.70829773 C21.20769332 255.46404974 21.66838162 243.9858202 21.5859375 233.19921875 C21.56717712 231.62595154 21.54760031 230.05269388 21.5272522 228.47944641 C21.47643832 224.38450817 21.43654491 220.28953748 21.39910889 216.19445801 C21.35874666 211.99739902 21.30780322 207.80046902 21.2578125 203.60351562 C21.16165608 195.40243265 21.07706324 187.20128454 21 179 C20.61124695 179.42493744 20.2224939 179.84987488 19.82196045 180.28768921 C18.02633607 182.24536358 16.22416862 184.19690211 14.421875 186.1484375 C13.50510986 187.15088501 13.50510986 187.15088501 12.56982422 188.17358398 C-1.03198173 202.86245632 -18.18445737 213.08340035 -38.53833008 214.19287109 C-66.83923277 214.80396171 -91.21069031 212.0987598 -113 192 C-113.85078125 191.21753906 -114.7015625 190.43507813 -115.578125 189.62890625 C-130.9900072 174.8399594 -139.3473957 156.29261293 -145 136 C-145.1949707 135.30197266 -145.38994141 134.60394531 -145.59082031 133.88476562 C-148.49055138 122.74048372 -148.27662732 111.24658867 -148.3125 99.8125 C-148.31635712 99.04549774 -148.32021423 98.27849548 -148.32418823 97.48825073 C-148.35817131 83.74384038 -147.49430381 70.276804 -143.375 57.0625 C-143.11630127 56.22259521 -142.85760254 55.38269043 -142.59106445 54.51733398 C-134.56161482 29.54023822 -118.35356154 7.54860566 -95.03662109 -4.97314453 C-65.72858448 -19.75012871 -26.91500904 -20.27215575 0 0 Z " fill="#E5AB14" transform="translate(1016,542)"/>
<path d="M0 0 C15.48852726 14.45595878 24.0693723 34.63136894 28.6015625 54.953125 C28.6015625 56.273125 28.6015625 57.593125 28.6015625 58.953125 C16.7215625 58.953125 4.8415625 58.953125 -7.3984375 58.953125 C-8.7184375 54.663125 -10.0384375 50.373125 -11.3984375 45.953125 C-17.92771393 30.65460139 -29.14685184 18.55576633 -44.53125 12.078125 C-45.47742188 11.706875 -46.42359375 11.335625 -47.3984375 10.953125 C-48.32398438 10.581875 -49.24953125 10.210625 -50.203125 9.828125 C-71.14955433 2.1080318 -98.36104128 2.14822134 -118.78125 11.56640625 C-130.62816237 17.84350161 -139.15107856 26.09297004 -143.2734375 39.140625 C-146.35465578 52.30076815 -144.48323965 63.42322162 -138.1875 75.22265625 C-126.25082492 93.56172978 -98.10952778 98.97070531 -78.3359375 103.171875 C-74.6917423 103.94028111 -71.04553395 104.69861986 -67.3984375 105.453125 C-55.58489324 107.89709104 -43.9549224 110.46687045 -32.3984375 113.953125 C-30.35714111 114.51696724 -28.31551991 115.07963616 -26.2734375 115.640625 C-13.36760591 119.66281055 0.15551787 125.24493951 10.6015625 133.953125 C11.44847656 134.64019531 12.29539062 135.32726562 13.16796875 136.03515625 C26.71203665 147.56073415 35.03353461 163.80514325 37.2890625 181.453125 C39.15924423 206.56130957 36.23655328 231.68252148 19.234375 251.55078125 C11.94114869 259.69425415 4.29983651 265.82812053 -5.3984375 270.953125 C-6.24277344 271.40945313 -7.08710938 271.86578125 -7.95703125 272.3359375 C-13.79685037 275.23307086 -19.93874853 277.2058537 -26.1484375 279.140625 C-27.32611694 279.51598389 -27.32611694 279.51598389 -28.52758789 279.89892578 C-42.16135339 283.9712956 -56.15851153 284.39441152 -70.2734375 284.390625 C-71.12438995 284.3916925 -71.97534241 284.39276001 -72.8520813 284.39385986 C-93.32594527 284.35695318 -112.60390618 281.33141005 -131.3984375 272.953125 C-132.30360107 272.55504639 -132.30360107 272.55504639 -133.22705078 272.14892578 C-142.17227459 268.15922719 -149.84397587 263.15895192 -157.3984375 256.953125 C-158.67654297 255.92251953 -158.67654297 255.92251953 -159.98046875 254.87109375 C-174.53281656 242.51878593 -183.2744031 226.97141801 -189.7734375 209.265625 C-190.13175659 208.30595825 -190.13175659 208.30595825 -190.49731445 207.3269043 C-192.75205477 200.8156582 -193.30389928 195.06762342 -194.3984375 187.953125 C-182.1884375 187.953125 -169.9784375 187.953125 -157.3984375 187.953125 C-156.3671875 190.86125 -155.3359375 193.769375 -154.2734375 196.765625 C-147.24392749 215.98745135 -136.0550236 231.53741823 -117.3984375 240.953125 C-91.2751674 253.03551406 -58.71343881 255.3160562 -31.4609375 245.703125 C-18.48900843 240.26850135 -8.97827671 231.70198134 -3.40625 218.7265625 C-1.1982553 212.65029801 -0.06123234 207.2350655 -0.1484375 200.765625 C-0.15665527 200.0216748 -0.16487305 199.27772461 -0.17333984 198.51123047 C-0.45260989 184.58076021 -3.5749461 173.27068473 -13.30859375 162.85546875 C-32.70705446 145.19743069 -61.17842361 141.05490787 -85.98046875 136.06640625 C-92.50657907 134.7461999 -98.94213774 133.16946501 -105.38085938 131.47558594 C-107.6061745 130.89933057 -109.83758619 130.35149619 -112.0703125 129.8046875 C-134.93087766 124.12562737 -156.76092075 115.38569034 -171.3984375 95.953125 C-182.61310255 77.2212063 -185.61994109 54.3912234 -180.37768555 33.22558594 C-177.16803568 21.73785373 -171.42951703 10.78564282 -163.3984375 1.953125 C-162.70621094 1.15777344 -162.01398438 0.36242187 -161.30078125 -0.45703125 C-147.60774388 -15.2473404 -128.88217963 -23.13458103 -109.3984375 -27.046875 C-108.4290625 -27.25183594 -107.4596875 -27.45679688 -106.4609375 -27.66796875 C-68.53062732 -34.40803612 -29.31537732 -25.01833504 0 0 Z " fill="#FBBB16" transform="translate(310.3984375,472.046875)"/>
<path d="M0 0 C12.21 0 24.42 0 37 0 C40.78130358 13.18844906 44.52176005 26.3870664 48.2109375 39.6015625 C49.39671667 43.84833664 50.58970868 48.0929776 51.7890625 52.3359375 C54.6491853 62.47044729 57.44303702 72.61291233 60.0625 82.8125 C62.09225344 90.70405293 64.3023953 98.51534078 66.67993164 106.30859375 C71.27810931 121.41838132 75.4273945 136.66222735 79.4375 151.9375 C79.69660156 152.92081299 79.95570313 153.90412598 80.22265625 154.91723633 C80.45726562 155.81982178 80.691875 156.72240723 80.93359375 157.65234375 C81.2438147 158.84331665 81.2438147 158.84331665 81.56030273 160.05834961 C82 162 82 162 82 164 C82.66 164 83.32 164 84 164 C84.1648653 163.18488968 84.1648653 163.18488968 84.33306122 162.35331249 C85.52541057 156.70272137 87.10442881 151.30034385 88.97070312 145.83911133 C89.2642698 144.96773246 89.55783648 144.09635359 89.86029911 143.1985693 C90.82960729 140.32490242 91.80543631 137.45349486 92.78125 134.58203125 C93.47040013 132.54264759 94.15910645 130.50311392 94.84739685 128.46343994 C96.68190632 123.03049744 98.52182108 117.5994005 100.36283493 112.16865921 C103.38619319 103.24570516 106.39950938 94.31934947 109.41486931 85.39369011 C110.53304103 82.08438514 111.65182079 78.77528616 112.77064514 75.46620178 C116.91945351 63.19111427 121.04509097 50.9088333 125.12109375 38.609375 C125.33873508 37.95310812 125.55637642 37.29684124 125.78061295 36.62068748 C127.89405906 30.24746753 130.00029383 23.87193787 132.09765625 17.4934082 C132.74077395 15.54895401 133.38399495 13.60453399 134.02734375 11.66015625 C134.30597763 10.80560852 134.58461151 9.95106079 134.87168884 9.07061768 C135.98328157 5.72088887 137.03095083 2.95357375 139 0 C142.07275391 -0.34057617 142.07275391 -0.34057617 145.9765625 -0.29296875 C146.66181 -0.28872391 147.3470575 -0.28447906 148.05307007 -0.28010559 C150.24411129 -0.26329753 152.43423632 -0.22564405 154.625 -0.1875 C156.10936173 -0.17245579 157.59373785 -0.15876693 159.078125 -0.14648438 C162.71904833 -0.1133879 166.35943478 -0.06159207 170 0 C170.22969734 0.69001382 170.45939468 1.38002764 170.69605255 2.09095097 C176.3217601 18.99029419 181.9491905 35.88906285 187.57846832 52.78721714 C190.3008588 60.9595141 193.02269563 69.13199463 195.74316406 77.30493164 C198.1182142 84.44014466 200.49436936 91.57498863 202.8717761 98.70941681 C204.1270112 102.47640985 205.38174409 106.24356826 206.63514709 110.01117134 C208.04483052 114.24831334 209.45645325 118.48480594 210.86914062 122.72094727 C211.09072877 123.3859569 211.31231691 124.05096653 211.54061985 124.73612797 C214.82856058 134.5968689 218.19763374 144.42719717 221.70804596 154.21122837 C222.01269524 155.07081119 222.31734451 155.930394 222.63122559 156.81602478 C222.89736412 157.55745696 223.16350266 158.29888914 223.43770599 159.06278896 C224 161 224 161 224 164 C224.66 164 225.32 164 226 164 C226.10054687 163.07960938 226.20109375 162.15921875 226.3046875 161.2109375 C227.06984038 155.88685982 228.64019258 150.78471581 230.125 145.625 C230.75925479 143.3919669 231.39336514 141.15889277 232.02734375 138.92578125 C232.35331543 137.78318848 232.67928711 136.6405957 233.01513672 135.46337891 C234.59191032 129.91848294 236.1380417 124.36507703 237.6875 118.8125 C239.7403613 111.47382817 241.81108151 104.14089133 243.9140625 96.81640625 C245.41874293 91.52837467 246.89565496 86.23266636 248.375 80.9375 C250.79605664 72.27320794 253.24533063 63.61772678 255.72558594 54.97021484 C257.71918286 48.00851086 259.67580057 41.03675217 261.625 34.0625 C262.21611929 31.9505134 262.80726423 29.83853399 263.3984375 27.7265625 C264.34421711 24.34719793 265.28709645 20.96706152 266.2265625 17.5859375 C266.56429688 16.38195312 266.90203125 15.17796875 267.25 13.9375 C267.52328125 12.95652344 267.7965625 11.97554687 268.078125 10.96484375 C269.23065687 7.25818406 270.63704138 3.63455631 272 0 C283.88 0 295.76 0 308 0 C305.75105288 10.12026205 305.75105288 10.12026205 304.66796875 13.65625 C304.42957275 14.44153076 304.19117676 15.22681152 303.94555664 16.03588867 C303.69539795 16.84904541 303.44523926 17.66220215 303.1875 18.5 C302.64811107 20.27724471 302.10905344 22.05459 301.5703125 23.83203125 C301.30379883 24.70811035 301.03728516 25.58418945 300.76269531 26.48681641 C299.68150602 30.04948048 298.61620987 33.61661866 297.5625 37.1875 C297.26484741 38.19550659 297.26484741 38.19550659 296.96118164 39.22387695 C295.73104791 43.42083224 294.54363117 47.62816654 293.37890625 51.84375 C290.28299416 63.0482111 287.06299397 74.17966585 283.48925781 85.24169922 C281.05239901 92.78770097 278.78597411 100.37337445 276.58398438 107.99072266 C276.00606118 109.97914568 275.41885938 111.96456712 274.828125 113.94921875 C272.65038872 121.27546575 270.54572455 128.61704901 268.51074219 135.984375 C265.70229072 146.14062728 262.72866304 156.21454356 259.48925781 166.24169922 C257.05755166 173.77174521 254.79480761 181.34122121 252.59716797 188.94238281 C251.97814179 191.07531519 251.35157384 193.20590171 250.72265625 195.3359375 C250.39998779 196.42878052 250.39998779 196.42878052 250.07080078 197.54370117 C249.75731689 198.60488159 249.75731689 198.60488159 249.4375 199.6875 C247.24555116 207.1128215 245.12724116 214.55465594 243 222 C232.44 222 221.88 222 211 222 C202.69583587 197.14801678 194.45327197 172.27615508 186.25390625 147.3894043 C184.99845194 143.57894163 183.74225165 139.76872624 182.48535156 135.95874023 C180.62189754 130.31011157 178.7596071 124.66110053 176.8984375 119.01171875 C176.59834526 118.10089413 176.29825302 117.1900695 175.98906708 116.25164413 C172.99654756 107.1649126 170.01365028 98.07544747 167.08691406 88.96728516 C166.86118776 88.26504853 166.63546146 87.56281191 166.40289497 86.83929539 C165.38127297 83.65817638 164.36334931 80.47597831 163.35092163 77.29191589 C160.41651487 68.1151858 157.2116129 59.0995699 154 50 C135.19 106.43 116.38 162.86 97 221 C86.44 221 75.88 221 65 221 C62.01364022 212.63819262 59.34779524 204.86826216 57.15625 196.3671875 C53.78761886 183.44799887 49.88778207 170.64940102 45.8125 157.9375 C43.71694173 151.39895195 41.84915406 144.83834364 40.12109375 138.19140625 C36.73188441 125.33786962 32.87008784 112.59420796 28.8125 99.9375 C26.71694173 93.39895195 24.84915406 86.83834364 23.12109375 80.19140625 C19.52237946 66.54332454 15.37477005 53.03413907 11.0612793 39.59741211 C9.17769857 33.68419857 7.56322794 27.73620571 6.01171875 21.7265625 C4.67543092 16.804483 3.14569661 11.95222335 1.57397461 7.10083008 C0 2.20065038 0 2.20065038 0 0 Z " fill="#F2B415" transform="translate(397,531)"/>
<path d="M0 0 C16.78008864 13.83086094 27.28745638 33.81189945 29.79345703 55.41845703 C30.24011543 61.00115907 30.28676682 66.58943013 30.3125 72.1875 C30.32095947 73.93305176 30.32095947 73.93305176 30.32958984 75.71386719 C30.13833885 98.64453684 23.12120741 120.96257694 6.7109375 137.41796875 C-9.00175976 152.38352047 -24.94270039 156.66672525 -46.15234375 156.3125 C-53.01291213 156.05060459 -58.70908901 154.87174254 -65 152 C-65.93457031 151.5875 -66.86914062 151.175 -67.83203125 150.75 C-85.15254012 142.22298025 -95.66273575 126.27138048 -102.2578125 108.63671875 C-106.18494463 96.49169901 -107.32739298 84.78719559 -107.25 72.0625 C-107.25773438 70.79470703 -107.26546875 69.52691406 -107.2734375 68.22070312 C-107.22345006 43.83932999 -100.13537999 21.58135804 -82.87890625 3.81640625 C-77.48735672 -1.26760391 -71.7364291 -4.93551409 -65 -8 C-64.09378906 -8.41507813 -63.18757812 -8.83015625 -62.25390625 -9.2578125 C-42.05963691 -16.92788027 -17.16467129 -12.70419209 0 0 Z " fill="#FEFEFE" transform="translate(1009,570)"/>
<path d="M0 0 C11.55 0 23.1 0 35 0 C35.02311532 28.79754943 35.04097733 57.59509664 35.05181217 86.39265347 C35.05697593 99.76283033 35.06398987 113.13300082 35.07543945 126.50317383 C35.08538387 138.15199206 35.09185285 149.80080605 35.09408849 161.44962841 C35.09539601 167.62174794 35.09848446 173.79385534 35.10573006 179.96597099 C35.11248646 185.76804298 35.11461774 191.57009776 35.11310768 197.37217331 C35.11338418 199.50839265 35.11539154 201.64461252 35.11920547 203.78082848 C35.1241368 206.68381751 35.12300037 209.58674046 35.12025452 212.48973083 C35.12316736 213.34671757 35.1260802 214.2037043 35.12908131 215.08666033 C35.11412121 220.88587879 35.11412121 220.88587879 34 222 C22.78 222 11.56 222 0 222 C0 148.74 0 75.48 0 0 Z " fill="#ECB11A" transform="translate(764,531)"/>
<path d="M0 0 C6.42404599 3.609235 11.51927861 8.88205459 13.87109375 15.9375 C15.13831334 31.19844455 15.13831334 31.19844455 10.4921875 37.2265625 C4.73269882 43.30525176 0.15604525 47.41023106 -8.49609375 48.2734375 C-18.18813804 48.38136672 -23.77205749 47.18751122 -30.94140625 40.6875 C-36.86347609 34.27868469 -37.7738792 27.7190262 -37.53515625 19.125 C-36.65373492 12.20923267 -33.49777196 7.72326754 -28.06640625 3.5 C-26.78053148 2.60625338 -25.46794019 1.74943907 -24.12890625 0.9375 C-23.55527344 0.56496094 -22.98164062 0.19242187 -22.390625 -0.19140625 C-15.88549827 -2.69683503 -6.54878278 -2.22380639 0 0 Z " fill="#EBAF14" transform="translate(793.12890625,445.0625)"/>
</svg>
